<svg xmlns="http://www.w3.org/2000/svg" xmlns:svgjs="http://svgjs.dev/svgjs" xmlns:xlink="http://www.w3.org/1999/xlink" width="128" height="128" version="1.1" viewBox="0 0 128 128"><g transform="matrix(0.8046875,0,0,0.8046875,12.333870967741937,12.333870967741937)"><svg xmlns="http://www.w3.org/2000/svg" xmlns:xlink="http://www.w3.org/1999/xlink" width="128" height="128" data-background-color="#282634" preserveAspectRatio="xMidYMid meet" viewBox="0 0 155 155"><g id="tight-bounds" transform="matrix(1,0,0,1,0.25,0.25)"><svg width="154.5" height="154.5" viewBox="0 0 154.5 154.5"><g><svg/></g><g><svg width="154.5" height="154.5" viewBox="0 0 154.5 154.5"><g transform="matrix(1,0,0,1,55.807695428571435,47.746371)"><svg width="42.885" height="59.007" viewBox="0 0 42.885 59.007"><g><svg width="42.885" height="59.007" viewBox="0 0 42.885 59.007"><g><svg width="42.885" height="59.007" viewBox="0 0 42.885 59.007"><g><svg width="42.885" height="59.007" viewBox="0 0 42.885 59.007"><g><svg width="42.885" height="59.007" viewBox="0 0 42.885 59.007"><g transform="matrix(1,0,0,1,0,0)"><svg width="42.885" height="59.007" data-palette-color="#e05c5c" viewBox="2.35 -35.65 26.2 36.05"><path id="text-0" fill="#e05c5c" d="M15.55 0.4Q7.3 0.4 2.35-4.05L2.35-4.05 3.95-7.2Q6.55-5 9.28-4.05 12-3.1 15.6-3.1L15.6-3.1Q19.85-3.1 22.15-4.75 24.45-6.4 24.45-9.4L24.45-9.4Q24.45-11.15 23.35-12.25 22.25-13.35 20.45-14 18.65-14.65 15.6-15.35L15.6-15.35Q11.5-16.3 8.88-17.35 6.25-18.4 4.63-20.35 3-22.3 3-25.45L3-25.45Q3-28.45 4.58-30.78 6.15-33.1 9.08-34.38 12-35.65 15.85-35.65L15.85-35.65Q19.5-35.65 22.68-34.5 25.85-33.35 28.05-31.2L28.05-31.2 26.5-28.05Q24-30.2 21.43-31.18 18.85-32.15 15.85-32.15L15.85-32.15Q11.75-32.15 9.43-30.43 7.1-28.7 7.1-25.6L7.1-25.6Q7.1-22.95 9.15-21.6 11.2-20.25 15.35-19.3L15.35-19.3Q19.9-18.2 22.5-17.28 25.1-16.35 26.83-14.5 28.55-12.65 28.55-9.55L28.55-9.55Q28.55-6.55 26.98-4.3 25.4-2.05 22.45-0.83 19.5 0.4 15.55 0.4L15.55 0.4Z" class="undefined-text-0" data-fill-palette-color="primary" opacity="1" transform="matrix(1,0,0,1,0,0)"/></svg></g></svg></g></svg></g></svg></g></svg></g></svg></g><path fill="#e05c5c" stroke="transparent" d="M55.808 41.746L55.808 1 98.692 1 98.692 41.746 93.371 41.746 93.371 6.321 61.129 6.321 61.129 41.746 55.808 41.746M55.808 112.754L55.808 153.5 98.692 153.5 98.692 112.754 93.371 112.754 93.371 148.179 61.129 148.179 61.129 112.754 55.808 112.754" data-fill-palette-color="primary"/></svg></g></svg><rect width="154.5" height="154.5" fill="none" stroke="none" visibility="hidden"/></g></svg></g></svg>