<svg xmlns="http://www.w3.org/2000/svg" width="73" height="200" fill="none" viewBox="0 0 73 200"><path fill="#915EFF" fill-rule="evenodd" d="M72.1216 0H0.105177V50H7.30682V10H64.92V50H72.1216V0ZM0.105177 200V150H7.30682V190H64.92V150H72.1216V200H0.105177ZM18.5549 150.45C24.0549 152.85 30.2549 154.05 37.1549 154.05C44.3549 154.05 50.6049 152.65 55.9049 149.85C61.2049 147.05 65.2049 143.4 67.9049 138.9C70.6049 134.4 71.9549 129.6 71.9549 124.5C71.9549 117.9 70.4549 112.7 67.4549 108.9C64.4549 105 60.8549 102.15 56.6549 100.35C52.4549 98.45 46.9049 96.55 40.0049 94.65C34.3049 93.05 29.8549 91.65 26.6549 90.45C23.5549 89.15 20.9049 87.3 18.7049 84.9C16.6049 82.5 15.5549 79.4 15.5549 75.6C15.5549 70.3 17.3549 66.2 20.9549 63.3C24.5549 60.3 29.2049 58.8 34.9049 58.8C41.0049 58.8 45.9049 60.35 49.6049 63.45C53.3049 66.45 55.4049 69.95 55.9049 73.95H70.9049C70.1049 65.85 66.5549 59.35 60.2549 54.45C54.0549 49.55 46.0549 47.1 36.2549 47.1C29.4549 47.1 23.4049 48.3 18.1049 50.7C12.9049 53.1 8.85494 56.5 5.95494 60.9C3.05494 65.3 1.60494 70.35 1.60494 76.05C1.60494 82.55 3.05494 87.75 5.95494 91.65C8.95494 95.45 12.5049 98.25 16.6049 100.05C20.8049 101.85 26.3549 103.65 33.2549 105.45C38.8549 106.95 43.3049 108.35 46.6049 109.65C49.9049 110.95 52.6549 112.85 54.8549 115.35C57.0549 117.85 58.1549 121.1 58.1549 125.1C58.1549 130.2 56.2549 134.4 52.4549 137.7C48.7549 140.9 43.6549 142.5 37.1549 142.5C30.3549 142.5 25.1549 140.85 21.5549 137.55C18.0549 134.15 16.0549 130 15.5549 125.1H1.00494C1.10494 130.8 2.70494 135.85 5.80494 140.25C8.90494 144.55 13.1549 147.95 18.5549 150.45Z" clip-rule="evenodd"/></svg>